<mxfile host="Electron" agent="Mozilla/5.0 (Windows NT 10.0; Win64; x64) AppleWebKit/537.36 (KHTML, like Gecko) draw.io/27.0.5 Chrome/134.0.6998.205 Electron/35.3.0 Safari/537.36" version="27.0.5">
  <diagram name="Seite-1" id="4Q_Ad8JWP_AyUONkigq_">
    <mxGraphModel dx="1213" dy="1997" grid="1" gridSize="10" guides="1" tooltips="1" connect="1" arrows="1" fold="1" page="1" pageScale="1" pageWidth="827" pageHeight="1169" math="0" shadow="0">
      <root>
        <mxCell id="0" />
        <mxCell id="1" parent="0" />
        <mxCell id="TBVSJ8mtiFMGtf2WWz3s-13" value="Model layer" style="rounded=0;whiteSpace=wrap;html=1;verticalAlign=top;align=right;fontSize=16;fontStyle=1;fillColor=#d5e8d4;strokeColor=#82b366;" vertex="1" parent="1">
          <mxGeometry x="210" y="-110" width="550" height="110" as="geometry" />
        </mxCell>
        <mxCell id="TBVSJ8mtiFMGtf2WWz3s-3" value="" style="rounded=0;whiteSpace=wrap;html=1;fillColor=#fff2cc;strokeColor=#d6b656;" vertex="1" parent="1">
          <mxGeometry x="210" y="535" width="550" height="190" as="geometry" />
        </mxCell>
        <mxCell id="TBVSJ8mtiFMGtf2WWz3s-1" value="" style="rounded=0;whiteSpace=wrap;html=1;fillColor=#e1d5e7;strokeColor=#9673a6;" vertex="1" parent="1">
          <mxGeometry x="210" y="20" width="550" height="500" as="geometry" />
        </mxCell>
        <mxCell id="XLn3FIzO_G-K9Kpi2WrR-1" value="IUnitOfWork" style="rounded=0;whiteSpace=wrap;html=1;fontStyle=1" parent="1" vertex="1">
          <mxGeometry x="230" y="440" width="120" height="60" as="geometry" />
        </mxCell>
        <mxCell id="XLn3FIzO_G-K9Kpi2WrR-2" value="IRepository" style="rounded=0;whiteSpace=wrap;html=1;fontStyle=1" parent="1" vertex="1">
          <mxGeometry x="230" y="190" width="120" height="60" as="geometry" />
        </mxCell>
        <mxCell id="XLn3FIzO_G-K9Kpi2WrR-3" value="IRepositoryGuid" style="rounded=0;whiteSpace=wrap;html=1;fontStyle=1" parent="1" vertex="1">
          <mxGeometry x="370" y="190" width="120" height="60" as="geometry" />
        </mxCell>
        <mxCell id="XLn3FIzO_G-K9Kpi2WrR-4" value="" style="endArrow=classic;html=1;rounded=0;exitX=0.5;exitY=0;exitDx=0;exitDy=0;entryX=0.5;entryY=1;entryDx=0;entryDy=0;" parent="1" source="XLn3FIzO_G-K9Kpi2WrR-1" target="XLn3FIzO_G-K9Kpi2WrR-2" edge="1">
          <mxGeometry width="50" height="50" relative="1" as="geometry">
            <mxPoint x="309" y="450" as="sourcePoint" />
            <mxPoint x="420" y="430" as="targetPoint" />
          </mxGeometry>
        </mxCell>
        <mxCell id="XLn3FIzO_G-K9Kpi2WrR-5" value="" style="endArrow=classic;html=1;rounded=0;exitX=0.5;exitY=0;exitDx=0;exitDy=0;" parent="1" source="XLn3FIzO_G-K9Kpi2WrR-1" edge="1">
          <mxGeometry width="50" height="50" relative="1" as="geometry">
            <mxPoint x="329" y="635" as="sourcePoint" />
            <mxPoint x="430" y="250" as="targetPoint" />
          </mxGeometry>
        </mxCell>
        <mxCell id="XLn3FIzO_G-K9Kpi2WrR-6" value="IDbContextFactory" style="rounded=0;whiteSpace=wrap;html=1;" parent="1" vertex="1">
          <mxGeometry x="510" y="190" width="120" height="60" as="geometry" />
        </mxCell>
        <mxCell id="XLn3FIzO_G-K9Kpi2WrR-7" value="Service layer" style="rounded=0;whiteSpace=wrap;html=1;" parent="1" vertex="1">
          <mxGeometry x="230" y="550" width="120" height="60" as="geometry" />
        </mxCell>
        <mxCell id="XLn3FIzO_G-K9Kpi2WrR-8" value="Buisness logic layer" style="rounded=0;whiteSpace=wrap;html=1;" parent="1" vertex="1">
          <mxGeometry x="230" y="650" width="120" height="60" as="geometry" />
        </mxCell>
        <mxCell id="XLn3FIzO_G-K9Kpi2WrR-9" value="" style="endArrow=classic;html=1;rounded=0;exitX=0.5;exitY=0;exitDx=0;exitDy=0;" parent="1" source="XLn3FIzO_G-K9Kpi2WrR-8" target="XLn3FIzO_G-K9Kpi2WrR-7" edge="1">
          <mxGeometry width="50" height="50" relative="1" as="geometry">
            <mxPoint x="309" y="450" as="sourcePoint" />
            <mxPoint x="329" y="670" as="targetPoint" />
          </mxGeometry>
        </mxCell>
        <mxCell id="XLn3FIzO_G-K9Kpi2WrR-10" value="" style="endArrow=classic;html=1;rounded=0;exitX=0.5;exitY=0;exitDx=0;exitDy=0;entryX=0.5;entryY=1;entryDx=0;entryDy=0;" parent="1" source="XLn3FIzO_G-K9Kpi2WrR-7" target="XLn3FIzO_G-K9Kpi2WrR-1" edge="1">
          <mxGeometry width="50" height="50" relative="1" as="geometry">
            <mxPoint x="309" y="450" as="sourcePoint" />
            <mxPoint x="359" y="400" as="targetPoint" />
          </mxGeometry>
        </mxCell>
        <mxCell id="XLn3FIzO_G-K9Kpi2WrR-11" value="DbContextScope" style="rounded=0;whiteSpace=wrap;html=1;fontStyle=1" parent="1" vertex="1">
          <mxGeometry x="400" y="320" width="170" height="60" as="geometry" />
        </mxCell>
        <mxCell id="XLn3FIzO_G-K9Kpi2WrR-12" value="DbReadOnlyContextScope" style="rounded=0;whiteSpace=wrap;html=1;fontStyle=1" parent="1" vertex="1">
          <mxGeometry x="580" y="320" width="170" height="60" as="geometry" />
        </mxCell>
        <mxCell id="XLn3FIzO_G-K9Kpi2WrR-13" value="" style="endArrow=classic;html=1;rounded=0;exitX=0.5;exitY=0;exitDx=0;exitDy=0;entryX=0.5;entryY=1;entryDx=0;entryDy=0;" parent="1" source="XLn3FIzO_G-K9Kpi2WrR-1" target="XLn3FIzO_G-K9Kpi2WrR-11" edge="1">
          <mxGeometry width="50" height="50" relative="1" as="geometry">
            <mxPoint x="390" y="450" as="sourcePoint" />
            <mxPoint x="440" y="400" as="targetPoint" />
          </mxGeometry>
        </mxCell>
        <mxCell id="XLn3FIzO_G-K9Kpi2WrR-14" value="" style="endArrow=classic;html=1;rounded=0;exitX=0.5;exitY=0;exitDx=0;exitDy=0;entryX=0.5;entryY=1;entryDx=0;entryDy=0;" parent="1" source="XLn3FIzO_G-K9Kpi2WrR-1" target="XLn3FIzO_G-K9Kpi2WrR-12" edge="1">
          <mxGeometry width="50" height="50" relative="1" as="geometry">
            <mxPoint x="390" y="450" as="sourcePoint" />
            <mxPoint x="440" y="400" as="targetPoint" />
          </mxGeometry>
        </mxCell>
        <mxCell id="XLn3FIzO_G-K9Kpi2WrR-15" value="" style="endArrow=none;dashed=1;html=1;dashPattern=1 3;strokeWidth=2;rounded=0;entryX=0.5;entryY=1;entryDx=0;entryDy=0;" parent="1" target="XLn3FIzO_G-K9Kpi2WrR-6" edge="1">
          <mxGeometry width="50" height="50" relative="1" as="geometry">
            <mxPoint x="480" y="320" as="sourcePoint" />
            <mxPoint x="370" y="260" as="targetPoint" />
          </mxGeometry>
        </mxCell>
        <mxCell id="XLn3FIzO_G-K9Kpi2WrR-16" value="" style="endArrow=none;dashed=1;html=1;dashPattern=1 3;strokeWidth=2;rounded=0;entryX=0.5;entryY=0;entryDx=0;entryDy=0;exitX=0.5;exitY=1;exitDx=0;exitDy=0;" parent="1" source="XLn3FIzO_G-K9Kpi2WrR-6" target="XLn3FIzO_G-K9Kpi2WrR-12" edge="1">
          <mxGeometry width="50" height="50" relative="1" as="geometry">
            <mxPoint x="390" y="450" as="sourcePoint" />
            <mxPoint x="440" y="400" as="targetPoint" />
          </mxGeometry>
        </mxCell>
        <mxCell id="XLn3FIzO_G-K9Kpi2WrR-17" value="" style="endArrow=none;dashed=1;html=1;dashPattern=1 3;strokeWidth=2;rounded=0;entryX=0.5;entryY=1;entryDx=0;entryDy=0;exitX=0.5;exitY=0;exitDx=0;exitDy=0;" parent="1" target="XLn3FIzO_G-K9Kpi2WrR-2" edge="1" source="XLn3FIzO_G-K9Kpi2WrR-12">
          <mxGeometry width="50" height="50" relative="1" as="geometry">
            <mxPoint x="510" y="430" as="sourcePoint" />
            <mxPoint x="440" y="400" as="targetPoint" />
          </mxGeometry>
        </mxCell>
        <mxCell id="XLn3FIzO_G-K9Kpi2WrR-18" value="" style="endArrow=none;dashed=1;html=1;dashPattern=1 3;strokeWidth=2;rounded=0;entryX=0.5;entryY=0;entryDx=0;entryDy=0;exitX=0.5;exitY=1;exitDx=0;exitDy=0;" parent="1" source="XLn3FIzO_G-K9Kpi2WrR-3" target="XLn3FIzO_G-K9Kpi2WrR-11" edge="1">
          <mxGeometry width="50" height="50" relative="1" as="geometry">
            <mxPoint x="440" y="260" as="sourcePoint" />
            <mxPoint x="440" y="400" as="targetPoint" />
          </mxGeometry>
        </mxCell>
        <mxCell id="XLn3FIzO_G-K9Kpi2WrR-19" value="" style="endArrow=none;dashed=1;html=1;dashPattern=1 3;strokeWidth=2;rounded=0;exitX=0.5;exitY=0;exitDx=0;exitDy=0;" parent="1" source="XLn3FIzO_G-K9Kpi2WrR-12" edge="1">
          <mxGeometry width="50" height="50" relative="1" as="geometry">
            <mxPoint x="450" y="560" as="sourcePoint" />
            <mxPoint x="430" y="250" as="targetPoint" />
          </mxGeometry>
        </mxCell>
        <mxCell id="XLn3FIzO_G-K9Kpi2WrR-20" value="" style="endArrow=none;dashed=1;html=1;dashPattern=1 3;strokeWidth=2;rounded=0;exitX=0.5;exitY=1;exitDx=0;exitDy=0;entryX=0.5;entryY=0;entryDx=0;entryDy=0;" parent="1" source="XLn3FIzO_G-K9Kpi2WrR-2" edge="1" target="XLn3FIzO_G-K9Kpi2WrR-11">
          <mxGeometry width="50" height="50" relative="1" as="geometry">
            <mxPoint x="230" y="220" as="sourcePoint" />
            <mxPoint x="480" y="370" as="targetPoint" />
          </mxGeometry>
        </mxCell>
        <mxCell id="TBVSJ8mtiFMGtf2WWz3s-2" value="Database layer" style="text;html=1;align=center;verticalAlign=top;whiteSpace=wrap;rounded=0;fontStyle=1;fontSize=16;" vertex="1" parent="1">
          <mxGeometry x="580" y="430" width="110" height="60" as="geometry" />
        </mxCell>
        <mxCell id="TBVSJ8mtiFMGtf2WWz3s-4" value="App layer" style="text;html=1;align=center;verticalAlign=top;whiteSpace=wrap;rounded=0;fontSize=17;fontStyle=1" vertex="1" parent="1">
          <mxGeometry x="530" y="610" width="60" height="30" as="geometry" />
        </mxCell>
        <mxCell id="TBVSJ8mtiFMGtf2WWz3s-5" value="Configuration" style="rounded=0;whiteSpace=wrap;html=1;verticalAlign=top;align=left;fontSize=16;fontStyle=1;fillColor=#dae8fc;strokeColor=#6c8ebf;" vertex="1" parent="1">
          <mxGeometry x="220" y="30" width="530" height="110" as="geometry" />
        </mxCell>
        <mxCell id="TBVSJ8mtiFMGtf2WWz3s-6" value="Entity config 1" style="shape=cylinder3;whiteSpace=wrap;html=1;boundedLbl=1;backgroundOutline=1;size=15;" vertex="1" parent="1">
          <mxGeometry x="440" y="50" width="60" height="80" as="geometry" />
        </mxCell>
        <mxCell id="TBVSJ8mtiFMGtf2WWz3s-7" value="Entity config 2" style="shape=cylinder3;whiteSpace=wrap;html=1;boundedLbl=1;backgroundOutline=1;size=15;" vertex="1" parent="1">
          <mxGeometry x="520" y="50" width="60" height="80" as="geometry" />
        </mxCell>
        <mxCell id="TBVSJ8mtiFMGtf2WWz3s-8" value="Entity config 3" style="shape=cylinder3;whiteSpace=wrap;html=1;boundedLbl=1;backgroundOutline=1;size=15;" vertex="1" parent="1">
          <mxGeometry x="600" y="50" width="60" height="80" as="geometry" />
        </mxCell>
        <mxCell id="TBVSJ8mtiFMGtf2WWz3s-9" value="" style="endArrow=classic;html=1;rounded=0;exitX=0.5;exitY=0;exitDx=0;exitDy=0;" edge="1" parent="1" source="XLn3FIzO_G-K9Kpi2WrR-2" target="TBVSJ8mtiFMGtf2WWz3s-14">
          <mxGeometry width="50" height="50" relative="1" as="geometry">
            <mxPoint x="390" y="380" as="sourcePoint" />
            <mxPoint x="440" y="330" as="targetPoint" />
          </mxGeometry>
        </mxCell>
        <mxCell id="TBVSJ8mtiFMGtf2WWz3s-10" value="" style="endArrow=classic;html=1;rounded=0;entryX=0.5;entryY=1;entryDx=0;entryDy=0;entryPerimeter=0;" edge="1" parent="1" target="TBVSJ8mtiFMGtf2WWz3s-15">
          <mxGeometry width="50" height="50" relative="1" as="geometry">
            <mxPoint x="290" y="190" as="sourcePoint" />
            <mxPoint x="440" y="330" as="targetPoint" />
          </mxGeometry>
        </mxCell>
        <mxCell id="TBVSJ8mtiFMGtf2WWz3s-11" value="" style="endArrow=classic;html=1;rounded=0;exitX=0.5;exitY=0;exitDx=0;exitDy=0;entryX=0.5;entryY=1;entryDx=0;entryDy=0;entryPerimeter=0;" edge="1" parent="1" source="XLn3FIzO_G-K9Kpi2WrR-3" target="TBVSJ8mtiFMGtf2WWz3s-16">
          <mxGeometry width="50" height="50" relative="1" as="geometry">
            <mxPoint x="390" y="380" as="sourcePoint" />
            <mxPoint x="440" y="330" as="targetPoint" />
          </mxGeometry>
        </mxCell>
        <mxCell id="TBVSJ8mtiFMGtf2WWz3s-12" value="..." style="shape=cylinder3;whiteSpace=wrap;html=1;boundedLbl=1;backgroundOutline=1;size=15;" vertex="1" parent="1">
          <mxGeometry x="680" y="50" width="60" height="80" as="geometry" />
        </mxCell>
        <mxCell id="TBVSJ8mtiFMGtf2WWz3s-14" value="Entity 1" style="shape=cylinder3;whiteSpace=wrap;html=1;boundedLbl=1;backgroundOutline=1;size=15;" vertex="1" parent="1">
          <mxGeometry x="240" y="-100" width="60" height="80" as="geometry" />
        </mxCell>
        <mxCell id="TBVSJ8mtiFMGtf2WWz3s-15" value="Entity 2" style="shape=cylinder3;whiteSpace=wrap;html=1;boundedLbl=1;backgroundOutline=1;size=15;" vertex="1" parent="1">
          <mxGeometry x="320" y="-100" width="60" height="80" as="geometry" />
        </mxCell>
        <mxCell id="TBVSJ8mtiFMGtf2WWz3s-16" value="Entity 3" style="shape=cylinder3;whiteSpace=wrap;html=1;boundedLbl=1;backgroundOutline=1;size=15;" vertex="1" parent="1">
          <mxGeometry x="400" y="-100" width="60" height="80" as="geometry" />
        </mxCell>
        <mxCell id="TBVSJ8mtiFMGtf2WWz3s-17" value="..." style="shape=cylinder3;whiteSpace=wrap;html=1;boundedLbl=1;backgroundOutline=1;size=15;" vertex="1" parent="1">
          <mxGeometry x="480" y="-100" width="60" height="80" as="geometry" />
        </mxCell>
        <mxCell id="TBVSJ8mtiFMGtf2WWz3s-18" value="" style="endArrow=none;dashed=1;html=1;dashPattern=1 3;strokeWidth=2;rounded=0;exitX=0.5;exitY=0;exitDx=0;exitDy=0;entryX=0.5;entryY=1;entryDx=0;entryDy=0;entryPerimeter=0;" edge="1" parent="1" source="XLn3FIzO_G-K9Kpi2WrR-6" target="TBVSJ8mtiFMGtf2WWz3s-6">
          <mxGeometry width="50" height="50" relative="1" as="geometry">
            <mxPoint x="390" y="180" as="sourcePoint" />
            <mxPoint x="440" y="130" as="targetPoint" />
          </mxGeometry>
        </mxCell>
        <mxCell id="TBVSJ8mtiFMGtf2WWz3s-19" value="" style="endArrow=none;dashed=1;html=1;dashPattern=1 3;strokeWidth=2;rounded=0;exitX=0.5;exitY=0;exitDx=0;exitDy=0;entryX=0.5;entryY=1;entryDx=0;entryDy=0;entryPerimeter=0;" edge="1" parent="1" source="XLn3FIzO_G-K9Kpi2WrR-6" target="TBVSJ8mtiFMGtf2WWz3s-7">
          <mxGeometry width="50" height="50" relative="1" as="geometry">
            <mxPoint x="390" y="180" as="sourcePoint" />
            <mxPoint x="440" y="130" as="targetPoint" />
          </mxGeometry>
        </mxCell>
        <mxCell id="TBVSJ8mtiFMGtf2WWz3s-20" value="" style="endArrow=none;dashed=1;html=1;dashPattern=1 3;strokeWidth=2;rounded=0;entryX=0.5;entryY=1;entryDx=0;entryDy=0;entryPerimeter=0;exitX=0.5;exitY=0;exitDx=0;exitDy=0;" edge="1" parent="1" source="XLn3FIzO_G-K9Kpi2WrR-6" target="TBVSJ8mtiFMGtf2WWz3s-8">
          <mxGeometry width="50" height="50" relative="1" as="geometry">
            <mxPoint x="390" y="180" as="sourcePoint" />
            <mxPoint x="440" y="130" as="targetPoint" />
          </mxGeometry>
        </mxCell>
        <mxCell id="TBVSJ8mtiFMGtf2WWz3s-26" value="" style="endArrow=none;dashed=1;html=1;dashPattern=1 3;strokeWidth=2;rounded=0;exitX=0.5;exitY=0;exitDx=0;exitDy=0;entryX=0.5;entryY=1;entryDx=0;entryDy=0;entryPerimeter=0;" edge="1" parent="1" source="XLn3FIzO_G-K9Kpi2WrR-6" target="TBVSJ8mtiFMGtf2WWz3s-12">
          <mxGeometry width="50" height="50" relative="1" as="geometry">
            <mxPoint x="390" y="180" as="sourcePoint" />
            <mxPoint x="440" y="130" as="targetPoint" />
          </mxGeometry>
        </mxCell>
        <mxCell id="TBVSJ8mtiFMGtf2WWz3s-27" value="" style="endArrow=none;dashed=1;html=1;dashPattern=1 3;strokeWidth=2;rounded=0;exitX=0.5;exitY=1;exitDx=0;exitDy=0;exitPerimeter=0;entryX=0.5;entryY=0;entryDx=0;entryDy=0;entryPerimeter=0;" edge="1" parent="1" source="TBVSJ8mtiFMGtf2WWz3s-14" target="TBVSJ8mtiFMGtf2WWz3s-6">
          <mxGeometry width="50" height="50" relative="1" as="geometry">
            <mxPoint x="390" y="180" as="sourcePoint" />
            <mxPoint x="440" y="130" as="targetPoint" />
          </mxGeometry>
        </mxCell>
        <mxCell id="TBVSJ8mtiFMGtf2WWz3s-28" value="" style="endArrow=none;dashed=1;html=1;dashPattern=1 3;strokeWidth=2;rounded=0;entryX=0.5;entryY=1;entryDx=0;entryDy=0;entryPerimeter=0;exitX=0.5;exitY=0;exitDx=0;exitDy=0;exitPerimeter=0;" edge="1" parent="1" source="TBVSJ8mtiFMGtf2WWz3s-7" target="TBVSJ8mtiFMGtf2WWz3s-15">
          <mxGeometry width="50" height="50" relative="1" as="geometry">
            <mxPoint x="390" y="180" as="sourcePoint" />
            <mxPoint x="440" y="130" as="targetPoint" />
          </mxGeometry>
        </mxCell>
        <mxCell id="TBVSJ8mtiFMGtf2WWz3s-29" value="" style="endArrow=none;dashed=1;html=1;dashPattern=1 3;strokeWidth=2;rounded=0;entryX=0.5;entryY=1;entryDx=0;entryDy=0;entryPerimeter=0;exitX=0.5;exitY=0;exitDx=0;exitDy=0;exitPerimeter=0;" edge="1" parent="1" source="TBVSJ8mtiFMGtf2WWz3s-8" target="TBVSJ8mtiFMGtf2WWz3s-16">
          <mxGeometry width="50" height="50" relative="1" as="geometry">
            <mxPoint x="390" y="180" as="sourcePoint" />
            <mxPoint x="440" y="130" as="targetPoint" />
          </mxGeometry>
        </mxCell>
        <mxCell id="TBVSJ8mtiFMGtf2WWz3s-30" value="" style="endArrow=none;dashed=1;html=1;dashPattern=1 3;strokeWidth=2;rounded=0;entryX=0.5;entryY=0;entryDx=0;entryDy=0;entryPerimeter=0;exitX=0.5;exitY=1;exitDx=0;exitDy=0;exitPerimeter=0;" edge="1" parent="1" source="TBVSJ8mtiFMGtf2WWz3s-17" target="TBVSJ8mtiFMGtf2WWz3s-12">
          <mxGeometry width="50" height="50" relative="1" as="geometry">
            <mxPoint x="390" y="180" as="sourcePoint" />
            <mxPoint x="440" y="130" as="targetPoint" />
          </mxGeometry>
        </mxCell>
      </root>
    </mxGraphModel>
  </diagram>
</mxfile>
